<?xml version="1.0" encoding="UTF-8" standalone="no"?>
<!-- Created with Inkscape (http://www.inkscape.org/) -->

<svg
   xmlns:dc="http://purl.org/dc/elements/1.1/"
   xmlns:cc="http://creativecommons.org/ns#"
   xmlns:rdf="http://www.w3.org/1999/02/22-rdf-syntax-ns#"
   xmlns:svg="http://www.w3.org/2000/svg"
   xmlns="http://www.w3.org/2000/svg"
   xmlns:sodipodi="http://sodipodi.sourceforge.net/DTD/sodipodi-0.dtd"
   xmlns:inkscape="http://www.inkscape.org/namespaces/inkscape"
   id="svg3004"
   version="1.1"
   inkscape:version="0.48.2 r9819"
   width="1024"
   height="1024"
   xml:space="preserve"
   sodipodi:docname="woko-couilla.svg"><metadata
     id="metadata3010"><rdf:RDF><cc:Work
         rdf:about=""><dc:format>image/svg+xml</dc:format><dc:type
           rdf:resource="http://purl.org/dc/dcmitype/StillImage" /><dc:title></dc:title></cc:Work></rdf:RDF></metadata><defs
     id="defs3008"><clipPath
       clipPathUnits="userSpaceOnUse"
       id="clipPath3068"><path
         d="m 8117.9595,7982.0239 c 2.2182,1.9619 4.7832,3.5 7.5693,4.5005 2.8018,1.0064 5.8276,1.4697 8.9487,1.2744 3.023,-0.2016 5.982,-0.9917 8.6812,-2.3735 2.1265,-1.0879 4.0532,-2.5088 5.7241,-4.1939 0.3945,-0.3984 0.7754,-0.8115 1.1406,-1.2387 1.8721,-2.1861 3.3492,-4.7364 4.3306,-7.5279 0.9795,-2.7846 1.4644,-5.8081 1.3564,-8.9497 -0.1098,-3.1469 -0.7656,-6.3037 -2.0673,-9.1782 -1.2251,-2.7036 -2.9493,-4.9917 -5.0669,-6.8144 -0.4214,-0.3633 -0.8589,-0.7081 -1.3111,-1.0342 -1.9155,-1.3799 -4.0957,-2.4219 -6.477,-3.0996 -3.1021,-0.8819 -6.3677,-1.0874 -9.5718,-0.7842 -3.2178,0.3076 -6.2871,1.1382 -9.0488,2.4277 -2.7769,1.2959 -5.2422,3.0552 -7.232,5.2134 -1.9277,2.0908 -3.4091,4.5552 -4.2959,7.3335 -0.937,2.938 -1.1323,6.0586 -0.7441,9.1094 0.3906,3.0757 1.3325,5.9585 2.7134,8.5468 1.3823,2.5923 3.2041,4.8892 5.3506,6.7886 z"
         id="path3070"
         inkscape:connector-curvature="0" /></clipPath><clipPath
       clipPathUnits="userSpaceOnUse"
       id="clipPath3076"><path
         d="m 8109.5073,7942.3013 46.3111,0 0,45.6928 -46.3111,0 0,-45.6928 z"
         id="path3078"
         inkscape:connector-curvature="0" /></clipPath></defs><sodipodi:namedview
     pagecolor="#ffffff"
     bordercolor="#666666"
     borderopacity="1"
     objecttolerance="10"
     gridtolerance="10"
     guidetolerance="10"
     inkscape:pageopacity="0"
     inkscape:pageshadow="2"
     inkscape:window-width="1680"
     inkscape:window-height="938"
     id="namedview3006"
     showgrid="false"
     inkscape:zoom="0.36606855"
     inkscape:cx="-97.81998"
     inkscape:cy="392.4085"
     inkscape:window-x="0"
     inkscape:window-y="0"
     inkscape:window-maximized="0"
     inkscape:current-layer="g3012" /><g
     id="g3012"
     inkscape:groupmode="layer"
     inkscape:label="woko_final"
     transform="matrix(1.25,0,0,-1.25,-160,1773.8621)"><g
       inkscape:groupmode="layer"
       id="layer1"
       inkscape:label="Layer" /><g
       id="g3080"
       transform="matrix(1.44,0,0,1.44,-64.072689,-370.43119)"><path
         sodipodi:nodetypes="scccccccccccscccscccc"
         inkscape:connector-curvature="0"
         id="path3440"
         d="m 452.21402,1054.7761 c -20.13776,0.36 -40.3752,-1.805 -60.51288,-7.2232 -31.48392,-10.1702 -54.75656,-20.8155 -83.55672,-56.02915 -15.99544,-20.65168 -24.8656,-47.56112 -25.66639,-56.6148 -2.99536,-24.5812 -2.692,-34.63768 0.93671,-64.42376 6.65736,-34.95744 20.75168,-58.93272 39.9048,-81.40824 20.07784,-20.17096 38.13384,-33.70264 63.51048,-46.07272 37.74456,-14.81472 80.6912,-13.41096 113.3448,-3.90448 20.20768,6.58984 44.92736,14.02632 72.31584,42.94912 18.38832,24.1252 32.06496,49.37568 39.71752,76.1372 7.89712,39.60232 4.13192,77.38552 -14.80056,118.30552 -24.84256,39.59011 -50.70296,61.99731 -84.86792,70.67091 -20.13776,4.4706 -40.18792,7.253 -60.32568,7.6136 z m 1.87344,-27.0512 c 25.3284,0.1672 49.11296,-4.2336 65.00928,-12.4944 20.65544,-11.2954 25.82048,-15.81947 7.6812,-32.88227 -15.59448,-13.27992 -41.95576,-22.58832 -74.75128,-26.35512 -6.86664,-0.7888 -31.39352,-1.1992 -38.406,-0.5856 -49.57648,4.33568 -77.45328,13.04232 -62.94856,35.81072 16.37072,20.59977 35.49224,28.17957 77.74896,34.94497 8.8836,0.9657 17.97312,1.4984 25.6664,1.5617 z"
         style="fill:#71c837;fill-opacity:1;stroke:none" /><path
         d="m 461.23002,964.76519 c 0,0 -87.0156,196.78131 -87.0156,196.78131 -4.4336,10.0273 -16.0352,17.918 -26.98832,18.3711 0,0 -116.27343,4.7226 -116.27343,4.7226 -6.04296,0.2464 -11.13672,-4.4492 -11.37888,-10.4922 -0.2496,-6.0391 4.4492,-11.1367 10.48824,-11.3828 0,0 116.27343,-4.7266 116.27343,-4.7266 2.668,-0.1056 6.77736,-2.9023 7.85944,-5.3476 0,0 84.8828,-191.96093 84.8828,-191.96093 10.69528,-0.7968 18.4492,2.08592 22.15232,4.03512 z"
         style="fill:#d40000;fill-opacity:1;fill-rule:nonzero;stroke:none"
         id="path3288"
         inkscape:connector-curvature="0" /></g></g></svg>